<mxfile host="app.diagrams.net" modified="2021-02-24T08:57:14.836Z" agent="5.0 (Windows NT 6.1; Win64; x64) AppleWebKit/537.36 (KHTML, like Gecko) Chrome/88.0.4324.182 Safari/537.36" etag="jA0tiwHYNUD0cskk6K4g" version="14.4.2" type="github">
  <diagram id="FmbOvh9XQwiSGqSjJZud" name="Page-1">
    <mxGraphModel dx="1422" dy="705" grid="1" gridSize="10" guides="1" tooltips="1" connect="1" arrows="1" fold="1" page="1" pageScale="1" pageWidth="827" pageHeight="1169" math="0" shadow="0">
      <root>
        <mxCell id="0" />
        <mxCell id="1" parent="0" />
        <mxCell id="AacCfS5JOyqSnJ6VwKo9-1" value="Pool" style="swimlane;html=1;childLayout=stackLayout;resizeParent=1;resizeParentMax=0;startSize=20;horizontal=0;horizontalStack=1;" parent="1" vertex="1">
          <mxGeometry x="30" y="40" width="786.5" height="2260" as="geometry" />
        </mxCell>
        <mxCell id="AacCfS5JOyqSnJ6VwKo9-2" value="用户" style="swimlane;html=1;startSize=20;" parent="AacCfS5JOyqSnJ6VwKo9-1" vertex="1">
          <mxGeometry x="20" width="170" height="2260" as="geometry" />
        </mxCell>
        <mxCell id="AacCfS5JOyqSnJ6VwKo9-6" value="用户预约挂号订单" style="ellipse;whiteSpace=wrap;html=1;" parent="AacCfS5JOyqSnJ6VwKo9-2" vertex="1">
          <mxGeometry x="30" y="70" width="110" height="40" as="geometry" />
        </mxCell>
        <mxCell id="AacCfS5JOyqSnJ6VwKo9-31" value="用户生成挂号订单" style="ellipse;whiteSpace=wrap;html=1;" parent="AacCfS5JOyqSnJ6VwKo9-2" vertex="1">
          <mxGeometry x="20" y="510" width="110" height="40" as="geometry" />
        </mxCell>
        <mxCell id="AacCfS5JOyqSnJ6VwKo9-35" value="是否支付挂号订单" style="rhombus;whiteSpace=wrap;html=1;" parent="AacCfS5JOyqSnJ6VwKo9-2" vertex="1">
          <mxGeometry x="17.5" y="620" width="115" height="150" as="geometry" />
        </mxCell>
        <mxCell id="AacCfS5JOyqSnJ6VwKo9-34" value="" style="endArrow=classic;html=1;exitX=0.5;exitY=1;exitDx=0;exitDy=0;entryX=0.5;entryY=0;entryDx=0;entryDy=0;" parent="AacCfS5JOyqSnJ6VwKo9-2" source="AacCfS5JOyqSnJ6VwKo9-31" target="AacCfS5JOyqSnJ6VwKo9-35" edge="1">
          <mxGeometry width="50" height="50" relative="1" as="geometry">
            <mxPoint x="340" y="590" as="sourcePoint" />
            <mxPoint x="75" y="620" as="targetPoint" />
          </mxGeometry>
        </mxCell>
        <mxCell id="AacCfS5JOyqSnJ6VwKo9-120" value="用户挂号订单&lt;br&gt;已支付" style="ellipse;whiteSpace=wrap;html=1;" parent="AacCfS5JOyqSnJ6VwKo9-2" vertex="1">
          <mxGeometry x="30" y="2150" width="110" height="40" as="geometry" />
        </mxCell>
        <mxCell id="AacCfS5JOyqSnJ6VwKo9-3" value="小程序服务器" style="swimlane;html=1;startSize=20;" parent="AacCfS5JOyqSnJ6VwKo9-1" vertex="1">
          <mxGeometry x="190" width="280" height="2260" as="geometry" />
        </mxCell>
        <mxCell id="AacCfS5JOyqSnJ6VwKo9-11" value="判断医院是否需要建档" style="rhombus;whiteSpace=wrap;html=1;" parent="AacCfS5JOyqSnJ6VwKo9-3" vertex="1">
          <mxGeometry x="76" y="45" width="135" height="90" as="geometry" />
        </mxCell>
        <mxCell id="AacCfS5JOyqSnJ6VwKo9-20" value="判断是否his预约&lt;br&gt;&lt;p class=&quot;MsoNormal&quot;&gt;&lt;span style=&quot;font-size: 10.5000pt&quot;&gt;his接收预约订单&lt;/span&gt;&lt;/p&gt;" style="rhombus;whiteSpace=wrap;html=1;" parent="AacCfS5JOyqSnJ6VwKo9-3" vertex="1">
          <mxGeometry x="76" y="260" width="136.5" height="140" as="geometry" />
        </mxCell>
        <mxCell id="AacCfS5JOyqSnJ6VwKo9-17" value="" style="endArrow=classic;html=1;exitX=0.5;exitY=1;exitDx=0;exitDy=0;entryX=0.5;entryY=0;entryDx=0;entryDy=0;" parent="AacCfS5JOyqSnJ6VwKo9-3" source="AacCfS5JOyqSnJ6VwKo9-11" target="AacCfS5JOyqSnJ6VwKo9-20" edge="1">
          <mxGeometry relative="1" as="geometry">
            <mxPoint x="110" y="280" as="sourcePoint" />
            <mxPoint x="144" y="260" as="targetPoint" />
          </mxGeometry>
        </mxCell>
        <mxCell id="AacCfS5JOyqSnJ6VwKo9-18" value="否" style="edgeLabel;resizable=0;html=1;align=center;verticalAlign=middle;" parent="AacCfS5JOyqSnJ6VwKo9-17" connectable="0" vertex="1">
          <mxGeometry relative="1" as="geometry" />
        </mxCell>
        <mxCell id="AacCfS5JOyqSnJ6VwKo9-23" value="" style="endArrow=classic;html=1;exitX=0.5;exitY=1;exitDx=0;exitDy=0;entryX=0.5;entryY=0;entryDx=0;entryDy=0;" parent="AacCfS5JOyqSnJ6VwKo9-3" source="AacCfS5JOyqSnJ6VwKo9-20" target="AacCfS5JOyqSnJ6VwKo9-25" edge="1">
          <mxGeometry relative="1" as="geometry">
            <mxPoint x="143" y="440" as="sourcePoint" />
            <mxPoint x="144" y="490" as="targetPoint" />
          </mxGeometry>
        </mxCell>
        <mxCell id="AacCfS5JOyqSnJ6VwKo9-24" value="否" style="edgeLabel;resizable=0;html=1;align=center;verticalAlign=middle;" parent="AacCfS5JOyqSnJ6VwKo9-23" connectable="0" vertex="1">
          <mxGeometry relative="1" as="geometry" />
        </mxCell>
        <mxCell id="AacCfS5JOyqSnJ6VwKo9-25" value="生成预约订单" style="rounded=0;whiteSpace=wrap;html=1;" parent="AacCfS5JOyqSnJ6VwKo9-3" vertex="1">
          <mxGeometry x="84.25" y="500" width="120" height="60" as="geometry" />
        </mxCell>
        <mxCell id="AacCfS5JOyqSnJ6VwKo9-42" value="取消预约订单" style="rounded=0;whiteSpace=wrap;html=1;" parent="AacCfS5JOyqSnJ6VwKo9-3" vertex="1">
          <mxGeometry x="160" y="590" width="100" height="60" as="geometry" />
        </mxCell>
        <mxCell id="AacCfS5JOyqSnJ6VwKo9-46" value="校验支付的预约订单" style="rhombus;whiteSpace=wrap;html=1;" parent="AacCfS5JOyqSnJ6VwKo9-3" vertex="1">
          <mxGeometry x="100" y="690" width="136.5" height="140" as="geometry" />
        </mxCell>
        <mxCell id="AacCfS5JOyqSnJ6VwKo9-50" value="支付回调" style="rounded=0;whiteSpace=wrap;html=1;" parent="AacCfS5JOyqSnJ6VwKo9-3" vertex="1">
          <mxGeometry x="84.25" y="920" width="120" height="60" as="geometry" />
        </mxCell>
        <mxCell id="AacCfS5JOyqSnJ6VwKo9-57" value="校验支付的预约订单" style="rhombus;whiteSpace=wrap;html=1;" parent="AacCfS5JOyqSnJ6VwKo9-3" vertex="1">
          <mxGeometry x="71.75" y="1060" width="136.5" height="140" as="geometry" />
        </mxCell>
        <mxCell id="AacCfS5JOyqSnJ6VwKo9-56" value="" style="endArrow=classic;html=1;exitX=0.458;exitY=1.042;exitDx=0;exitDy=0;exitPerimeter=0;entryX=0.5;entryY=0;entryDx=0;entryDy=0;" parent="AacCfS5JOyqSnJ6VwKo9-3" source="AacCfS5JOyqSnJ6VwKo9-50" target="AacCfS5JOyqSnJ6VwKo9-57" edge="1">
          <mxGeometry width="50" height="50" relative="1" as="geometry">
            <mxPoint x="150" y="1010" as="sourcePoint" />
            <mxPoint x="139" y="1050" as="targetPoint" />
          </mxGeometry>
        </mxCell>
        <mxCell id="AacCfS5JOyqSnJ6VwKo9-59" value="" style="endArrow=classic;html=1;" parent="AacCfS5JOyqSnJ6VwKo9-3" edge="1">
          <mxGeometry relative="1" as="geometry">
            <mxPoint x="210" y="1130" as="sourcePoint" />
            <mxPoint x="330" y="1130" as="targetPoint" />
            <Array as="points" />
          </mxGeometry>
        </mxCell>
        <mxCell id="AacCfS5JOyqSnJ6VwKo9-60" value="是" style="edgeLabel;resizable=0;html=1;align=center;verticalAlign=middle;" parent="AacCfS5JOyqSnJ6VwKo9-59" connectable="0" vertex="1">
          <mxGeometry relative="1" as="geometry" />
        </mxCell>
        <mxCell id="AacCfS5JOyqSnJ6VwKo9-64" value="预约支付订单失败轮询队列" style="rounded=0;whiteSpace=wrap;html=1;" parent="AacCfS5JOyqSnJ6VwKo9-3" vertex="1">
          <mxGeometry x="80" y="1260" width="120" height="60" as="geometry" />
        </mxCell>
        <mxCell id="AacCfS5JOyqSnJ6VwKo9-62" value="" style="endArrow=classic;html=1;exitX=0.5;exitY=1;exitDx=0;exitDy=0;entryX=0;entryY=0.5;entryDx=0;entryDy=0;" parent="AacCfS5JOyqSnJ6VwKo9-3" source="AacCfS5JOyqSnJ6VwKo9-46" target="AacCfS5JOyqSnJ6VwKo9-64" edge="1">
          <mxGeometry relative="1" as="geometry">
            <mxPoint x="154.25000000000023" y="410" as="sourcePoint" />
            <mxPoint x="80" y="1410" as="targetPoint" />
            <Array as="points">
              <mxPoint x="30" y="830" />
              <mxPoint x="30" y="1290" />
            </Array>
          </mxGeometry>
        </mxCell>
        <mxCell id="AacCfS5JOyqSnJ6VwKo9-63" value="否" style="edgeLabel;resizable=0;html=1;align=center;verticalAlign=middle;" parent="AacCfS5JOyqSnJ6VwKo9-62" connectable="0" vertex="1">
          <mxGeometry relative="1" as="geometry" />
        </mxCell>
        <mxCell id="AacCfS5JOyqSnJ6VwKo9-70" value="" style="endArrow=classic;html=1;exitX=0.5;exitY=1;exitDx=0;exitDy=0;entryX=0.5;entryY=0;entryDx=0;entryDy=0;" parent="AacCfS5JOyqSnJ6VwKo9-3" source="AacCfS5JOyqSnJ6VwKo9-57" target="AacCfS5JOyqSnJ6VwKo9-64" edge="1">
          <mxGeometry relative="1" as="geometry">
            <mxPoint x="390" y="1300" as="sourcePoint" />
            <mxPoint x="222.5" y="1300" as="targetPoint" />
            <Array as="points" />
          </mxGeometry>
        </mxCell>
        <mxCell id="AacCfS5JOyqSnJ6VwKo9-71" value="否" style="edgeLabel;resizable=0;html=1;align=center;verticalAlign=middle;" parent="AacCfS5JOyqSnJ6VwKo9-70" connectable="0" vertex="1">
          <mxGeometry relative="1" as="geometry" />
        </mxCell>
        <mxCell id="AacCfS5JOyqSnJ6VwKo9-107" value="预约订单退费" style="rhombus;whiteSpace=wrap;html=1;" parent="AacCfS5JOyqSnJ6VwKo9-3" vertex="1">
          <mxGeometry x="123.5" y="1510" width="136.5" height="140" as="geometry" />
        </mxCell>
        <mxCell id="AacCfS5JOyqSnJ6VwKo9-110" value="预约支付订单进入退费轮询" style="rounded=0;whiteSpace=wrap;html=1;" parent="AacCfS5JOyqSnJ6VwKo9-3" vertex="1">
          <mxGeometry x="131.75" y="1714" width="120" height="60" as="geometry" />
        </mxCell>
        <mxCell id="AacCfS5JOyqSnJ6VwKo9-108" value="" style="endArrow=classic;html=1;exitX=0.5;exitY=1;exitDx=0;exitDy=0;entryX=0.5;entryY=0;entryDx=0;entryDy=0;" parent="AacCfS5JOyqSnJ6VwKo9-3" source="AacCfS5JOyqSnJ6VwKo9-107" target="AacCfS5JOyqSnJ6VwKo9-110" edge="1">
          <mxGeometry relative="1" as="geometry">
            <mxPoint x="200" y="1450" as="sourcePoint" />
            <mxPoint x="192" y="1720" as="targetPoint" />
            <Array as="points" />
          </mxGeometry>
        </mxCell>
        <mxCell id="AacCfS5JOyqSnJ6VwKo9-109" value="否" style="edgeLabel;resizable=0;html=1;align=center;verticalAlign=middle;" parent="AacCfS5JOyqSnJ6VwKo9-108" connectable="0" vertex="1">
          <mxGeometry relative="1" as="geometry" />
        </mxCell>
        <mxCell id="AacCfS5JOyqSnJ6VwKo9-113" value="发短信通知管理员&lt;br&gt;人工处理" style="rounded=0;whiteSpace=wrap;html=1;" parent="AacCfS5JOyqSnJ6VwKo9-3" vertex="1">
          <mxGeometry x="131.75" y="1830" width="120" height="60" as="geometry" />
        </mxCell>
        <mxCell id="AacCfS5JOyqSnJ6VwKo9-111" value="" style="endArrow=classic;html=1;exitX=0.5;exitY=1;exitDx=0;exitDy=0;entryX=0.5;entryY=0;entryDx=0;entryDy=0;" parent="AacCfS5JOyqSnJ6VwKo9-3" source="AacCfS5JOyqSnJ6VwKo9-110" target="AacCfS5JOyqSnJ6VwKo9-113" edge="1">
          <mxGeometry relative="1" as="geometry">
            <mxPoint x="150" y="1330" as="sourcePoint" />
            <mxPoint x="192" y="1840" as="targetPoint" />
            <Array as="points" />
          </mxGeometry>
        </mxCell>
        <mxCell id="AacCfS5JOyqSnJ6VwKo9-112" value="轮询7天后" style="edgeLabel;resizable=0;html=1;align=center;verticalAlign=middle;" parent="AacCfS5JOyqSnJ6VwKo9-111" connectable="0" vertex="1">
          <mxGeometry relative="1" as="geometry" />
        </mxCell>
        <mxCell id="AacCfS5JOyqSnJ6VwKo9-116" value="预约订单状态更改为已支付" style="rounded=0;whiteSpace=wrap;html=1;" parent="AacCfS5JOyqSnJ6VwKo9-3" vertex="1">
          <mxGeometry x="139.25" y="2050" width="105" height="50" as="geometry" />
        </mxCell>
        <mxCell id="AacCfS5JOyqSnJ6VwKo9-117" value="预约订单状态更改为已退款" style="rounded=0;whiteSpace=wrap;html=1;" parent="AacCfS5JOyqSnJ6VwKo9-3" vertex="1">
          <mxGeometry x="139.25" y="1950" width="105" height="50" as="geometry" />
        </mxCell>
        <mxCell id="AacCfS5JOyqSnJ6VwKo9-4" value="his医院" style="swimlane;html=1;startSize=20;" parent="AacCfS5JOyqSnJ6VwKo9-1" vertex="1">
          <mxGeometry x="470" width="160" height="2260" as="geometry" />
        </mxCell>
        <mxCell id="AacCfS5JOyqSnJ6VwKo9-14" value="&lt;span&gt;用户建档&lt;/span&gt;" style="rounded=0;whiteSpace=wrap;html=1;" parent="AacCfS5JOyqSnJ6VwKo9-4" vertex="1">
          <mxGeometry x="20" y="300" width="120" height="60" as="geometry" />
        </mxCell>
        <mxCell id="AacCfS5JOyqSnJ6VwKo9-28" value="his生成预约订单" style="rounded=0;whiteSpace=wrap;html=1;" parent="AacCfS5JOyqSnJ6VwKo9-4" vertex="1">
          <mxGeometry x="20" y="500" width="120" height="60" as="geometry" />
        </mxCell>
        <mxCell id="AacCfS5JOyqSnJ6VwKo9-26" value="" style="endArrow=classic;html=1;exitX=0.5;exitY=1;exitDx=0;exitDy=0;entryX=0.5;entryY=0;entryDx=0;entryDy=0;" parent="AacCfS5JOyqSnJ6VwKo9-4" source="AacCfS5JOyqSnJ6VwKo9-14" target="AacCfS5JOyqSnJ6VwKo9-28" edge="1">
          <mxGeometry relative="1" as="geometry">
            <mxPoint x="-47.5" y="340" as="sourcePoint" />
            <mxPoint x="80" y="500" as="targetPoint" />
            <Array as="points" />
          </mxGeometry>
        </mxCell>
        <mxCell id="AacCfS5JOyqSnJ6VwKo9-27" value="是" style="edgeLabel;resizable=0;html=1;align=center;verticalAlign=middle;" parent="AacCfS5JOyqSnJ6VwKo9-26" connectable="0" vertex="1">
          <mxGeometry relative="1" as="geometry" />
        </mxCell>
        <mxCell id="AacCfS5JOyqSnJ6VwKo9-45" value="取消his预约订单" style="rounded=0;whiteSpace=wrap;html=1;" parent="AacCfS5JOyqSnJ6VwKo9-4" vertex="1">
          <mxGeometry x="50" y="595" width="90" height="50" as="geometry" />
        </mxCell>
        <mxCell id="AacCfS5JOyqSnJ6VwKo9-61" value="his支付预约订单" style="rounded=0;whiteSpace=wrap;html=1;" parent="AacCfS5JOyqSnJ6VwKo9-4" vertex="1">
          <mxGeometry x="50" y="2050" width="105" height="50" as="geometry" />
        </mxCell>
        <mxCell id="AacCfS5JOyqSnJ6VwKo9-65" value="his校验&lt;br&gt;预约支付订单" style="rhombus;whiteSpace=wrap;html=1;" parent="AacCfS5JOyqSnJ6VwKo9-4" vertex="1">
          <mxGeometry x="47.5" y="1060" width="110" height="140" as="geometry" />
        </mxCell>
        <mxCell id="AacCfS5JOyqSnJ6VwKo9-66" value="" style="endArrow=classic;html=1;exitX=0.5;exitY=1;exitDx=0;exitDy=0;entryX=0.5;entryY=0;entryDx=0;entryDy=0;" parent="AacCfS5JOyqSnJ6VwKo9-4" source="AacCfS5JOyqSnJ6VwKo9-65" target="AacCfS5JOyqSnJ6VwKo9-61" edge="1">
          <mxGeometry relative="1" as="geometry">
            <mxPoint x="-60" y="1140" as="sourcePoint" />
            <mxPoint x="60" y="1140" as="targetPoint" />
            <Array as="points" />
          </mxGeometry>
        </mxCell>
        <mxCell id="AacCfS5JOyqSnJ6VwKo9-67" value="是" style="edgeLabel;resizable=0;html=1;align=center;verticalAlign=middle;" parent="AacCfS5JOyqSnJ6VwKo9-66" connectable="0" vertex="1">
          <mxGeometry relative="1" as="geometry" />
        </mxCell>
        <mxCell id="AacCfS5JOyqSnJ6VwKo9-7" value="" style="endArrow=classic;html=1;exitX=1;exitY=0.5;exitDx=0;exitDy=0;entryX=0;entryY=0.5;entryDx=0;entryDy=0;" parent="AacCfS5JOyqSnJ6VwKo9-1" source="AacCfS5JOyqSnJ6VwKo9-6" target="AacCfS5JOyqSnJ6VwKo9-11" edge="1">
          <mxGeometry width="50" height="50" relative="1" as="geometry">
            <mxPoint x="85" y="100" as="sourcePoint" />
            <mxPoint x="265" y="60" as="targetPoint" />
          </mxGeometry>
        </mxCell>
        <mxCell id="AacCfS5JOyqSnJ6VwKo9-15" value="" style="endArrow=classic;html=1;exitX=1;exitY=0.5;exitDx=0;exitDy=0;entryX=0.5;entryY=0;entryDx=0;entryDy=0;" parent="AacCfS5JOyqSnJ6VwKo9-1" source="AacCfS5JOyqSnJ6VwKo9-11" target="AacCfS5JOyqSnJ6VwKo9-14" edge="1">
          <mxGeometry relative="1" as="geometry">
            <mxPoint x="330" y="280" as="sourcePoint" />
            <mxPoint x="430" y="280" as="targetPoint" />
            <Array as="points">
              <mxPoint x="550" y="90" />
            </Array>
          </mxGeometry>
        </mxCell>
        <mxCell id="AacCfS5JOyqSnJ6VwKo9-16" value="是" style="edgeLabel;resizable=0;html=1;align=center;verticalAlign=middle;" parent="AacCfS5JOyqSnJ6VwKo9-15" connectable="0" vertex="1">
          <mxGeometry relative="1" as="geometry" />
        </mxCell>
        <mxCell id="AacCfS5JOyqSnJ6VwKo9-21" value="" style="endArrow=classic;html=1;exitX=1;exitY=0.5;exitDx=0;exitDy=0;entryX=0;entryY=0.5;entryDx=0;entryDy=0;" parent="AacCfS5JOyqSnJ6VwKo9-1" source="AacCfS5JOyqSnJ6VwKo9-20" target="AacCfS5JOyqSnJ6VwKo9-14" edge="1">
          <mxGeometry relative="1" as="geometry">
            <mxPoint x="411" y="100" as="sourcePoint" />
            <mxPoint x="550" y="320" as="targetPoint" />
            <Array as="points" />
          </mxGeometry>
        </mxCell>
        <mxCell id="AacCfS5JOyqSnJ6VwKo9-22" value="是" style="edgeLabel;resizable=0;html=1;align=center;verticalAlign=middle;" parent="AacCfS5JOyqSnJ6VwKo9-21" connectable="0" vertex="1">
          <mxGeometry relative="1" as="geometry" />
        </mxCell>
        <mxCell id="AacCfS5JOyqSnJ6VwKo9-29" value="" style="endArrow=classic;html=1;exitX=0;exitY=0.5;exitDx=0;exitDy=0;entryX=1;entryY=0.5;entryDx=0;entryDy=0;" parent="AacCfS5JOyqSnJ6VwKo9-1" source="AacCfS5JOyqSnJ6VwKo9-28" target="AacCfS5JOyqSnJ6VwKo9-25" edge="1">
          <mxGeometry relative="1" as="geometry">
            <mxPoint x="412.5" y="340" as="sourcePoint" />
            <mxPoint x="490" y="340" as="targetPoint" />
            <Array as="points" />
          </mxGeometry>
        </mxCell>
        <mxCell id="AacCfS5JOyqSnJ6VwKo9-30" value="是" style="edgeLabel;resizable=0;html=1;align=center;verticalAlign=middle;" parent="AacCfS5JOyqSnJ6VwKo9-29" connectable="0" vertex="1">
          <mxGeometry relative="1" as="geometry" />
        </mxCell>
        <mxCell id="AacCfS5JOyqSnJ6VwKo9-32" value="" style="endArrow=classic;html=1;exitX=0;exitY=0.5;exitDx=0;exitDy=0;entryX=1;entryY=0.5;entryDx=0;entryDy=0;" parent="AacCfS5JOyqSnJ6VwKo9-1" source="AacCfS5JOyqSnJ6VwKo9-25" target="AacCfS5JOyqSnJ6VwKo9-31" edge="1">
          <mxGeometry relative="1" as="geometry">
            <mxPoint x="490" y="540" as="sourcePoint" />
            <mxPoint x="404.25" y="540" as="targetPoint" />
            <Array as="points" />
          </mxGeometry>
        </mxCell>
        <mxCell id="AacCfS5JOyqSnJ6VwKo9-33" value="是" style="edgeLabel;resizable=0;html=1;align=center;verticalAlign=middle;" parent="AacCfS5JOyqSnJ6VwKo9-32" connectable="0" vertex="1">
          <mxGeometry relative="1" as="geometry" />
        </mxCell>
        <mxCell id="AacCfS5JOyqSnJ6VwKo9-43" value="" style="endArrow=classic;html=1;exitX=1;exitY=0.5;exitDx=0;exitDy=0;entryX=0;entryY=0.5;entryDx=0;entryDy=0;" parent="AacCfS5JOyqSnJ6VwKo9-1" source="AacCfS5JOyqSnJ6VwKo9-42" target="AacCfS5JOyqSnJ6VwKo9-45" edge="1">
          <mxGeometry relative="1" as="geometry">
            <mxPoint x="412.5" y="340" as="sourcePoint" />
            <mxPoint x="490" y="620" as="targetPoint" />
            <Array as="points" />
          </mxGeometry>
        </mxCell>
        <mxCell id="AacCfS5JOyqSnJ6VwKo9-44" value="是" style="edgeLabel;resizable=0;html=1;align=center;verticalAlign=middle;" parent="AacCfS5JOyqSnJ6VwKo9-43" connectable="0" vertex="1">
          <mxGeometry relative="1" as="geometry" />
        </mxCell>
        <mxCell id="AacCfS5JOyqSnJ6VwKo9-5" value="微信支付" style="swimlane;html=1;startSize=20;" parent="AacCfS5JOyqSnJ6VwKo9-1" vertex="1">
          <mxGeometry x="630" width="156.5" height="2260" as="geometry" />
        </mxCell>
        <mxCell id="AacCfS5JOyqSnJ6VwKo9-49" value="&lt;pre style=&quot;background-color: rgb(255 , 255 , 255) ; font-size: 8px&quot;&gt;&lt;font face=&quot;Helvetica&quot; style=&quot;font-size: 8px&quot;&gt;&lt;span style=&quot;color: rgb(128 , 128 , 128) ; font-size: 8px&quot;&gt;微信&lt;/span&gt;&lt;span style=&quot;color: rgb(128 , 128 , 128) ; font-size: 8px&quot;&gt;统&lt;/span&gt;&lt;span style=&quot;color: rgb(128 , 128 , 128) ; font-size: 8px&quot;&gt;一支付接口&lt;/span&gt;&lt;/font&gt;&lt;/pre&gt;" style="rounded=0;whiteSpace=wrap;html=1;" parent="AacCfS5JOyqSnJ6VwKo9-5" vertex="1">
          <mxGeometry x="20" y="730" width="100" height="60" as="geometry" />
        </mxCell>
        <mxCell id="AacCfS5JOyqSnJ6VwKo9-103" value="微信退费接口" style="rhombus;whiteSpace=wrap;html=1;" parent="AacCfS5JOyqSnJ6VwKo9-5" vertex="1">
          <mxGeometry x="20" y="1510" width="136.5" height="140" as="geometry" />
        </mxCell>
        <mxCell id="AacCfS5JOyqSnJ6VwKo9-47" value="" style="endArrow=classic;html=1;exitX=1;exitY=0.5;exitDx=0;exitDy=0;entryX=0;entryY=0.5;entryDx=0;entryDy=0;" parent="AacCfS5JOyqSnJ6VwKo9-1" source="AacCfS5JOyqSnJ6VwKo9-46" target="AacCfS5JOyqSnJ6VwKo9-49" edge="1">
          <mxGeometry relative="1" as="geometry">
            <mxPoint x="412.5" y="340" as="sourcePoint" />
            <mxPoint x="650" y="760" as="targetPoint" />
            <Array as="points" />
          </mxGeometry>
        </mxCell>
        <mxCell id="AacCfS5JOyqSnJ6VwKo9-48" value="是" style="edgeLabel;resizable=0;html=1;align=center;verticalAlign=middle;" parent="AacCfS5JOyqSnJ6VwKo9-47" connectable="0" vertex="1">
          <mxGeometry relative="1" as="geometry" />
        </mxCell>
        <mxCell id="AacCfS5JOyqSnJ6VwKo9-101" value="" style="endArrow=classic;html=1;exitX=1;exitY=0.5;exitDx=0;exitDy=0;entryX=0;entryY=0.5;entryDx=0;entryDy=0;" parent="AacCfS5JOyqSnJ6VwKo9-1" source="AacCfS5JOyqSnJ6VwKo9-107" target="AacCfS5JOyqSnJ6VwKo9-103" edge="1">
          <mxGeometry relative="1" as="geometry">
            <mxPoint x="460" y="1580" as="sourcePoint" />
            <mxPoint x="650" y="1580" as="targetPoint" />
            <Array as="points" />
          </mxGeometry>
        </mxCell>
        <mxCell id="AacCfS5JOyqSnJ6VwKo9-102" value="是" style="edgeLabel;resizable=0;html=1;align=center;verticalAlign=middle;" parent="AacCfS5JOyqSnJ6VwKo9-101" connectable="0" vertex="1">
          <mxGeometry relative="1" as="geometry" />
        </mxCell>
        <mxCell id="AacCfS5JOyqSnJ6VwKo9-114" value="" style="endArrow=classic;html=1;exitX=0;exitY=0.5;exitDx=0;exitDy=0;" parent="AacCfS5JOyqSnJ6VwKo9-1" source="AacCfS5JOyqSnJ6VwKo9-61" target="AacCfS5JOyqSnJ6VwKo9-116" edge="1">
          <mxGeometry relative="1" as="geometry">
            <mxPoint x="460" y="1590" as="sourcePoint" />
            <mxPoint x="420" y="2075" as="targetPoint" />
            <Array as="points" />
          </mxGeometry>
        </mxCell>
        <mxCell id="AacCfS5JOyqSnJ6VwKo9-115" value="是" style="edgeLabel;resizable=0;html=1;align=center;verticalAlign=middle;" parent="AacCfS5JOyqSnJ6VwKo9-114" connectable="0" vertex="1">
          <mxGeometry relative="1" as="geometry" />
        </mxCell>
        <mxCell id="AacCfS5JOyqSnJ6VwKo9-105" value="" style="endArrow=classic;html=1;exitX=0.5;exitY=1;exitDx=0;exitDy=0;entryX=1;entryY=0.5;entryDx=0;entryDy=0;" parent="AacCfS5JOyqSnJ6VwKo9-1" source="AacCfS5JOyqSnJ6VwKo9-103" target="AacCfS5JOyqSnJ6VwKo9-117" edge="1">
          <mxGeometry relative="1" as="geometry">
            <mxPoint x="340" y="1330" as="sourcePoint" />
            <mxPoint x="390" y="1930" as="targetPoint" />
            <Array as="points">
              <mxPoint x="718" y="1975" />
            </Array>
          </mxGeometry>
        </mxCell>
        <mxCell id="AacCfS5JOyqSnJ6VwKo9-106" value="退费回调" style="edgeLabel;resizable=0;html=1;align=center;verticalAlign=middle;" parent="AacCfS5JOyqSnJ6VwKo9-105" connectable="0" vertex="1">
          <mxGeometry relative="1" as="geometry" />
        </mxCell>
        <mxCell id="AacCfS5JOyqSnJ6VwKo9-123" value="" style="endArrow=classic;html=1;exitX=0.5;exitY=1;exitDx=0;exitDy=0;entryX=1;entryY=0.5;entryDx=0;entryDy=0;" parent="AacCfS5JOyqSnJ6VwKo9-1" source="AacCfS5JOyqSnJ6VwKo9-116" target="AacCfS5JOyqSnJ6VwKo9-120" edge="1">
          <mxGeometry relative="1" as="geometry">
            <mxPoint x="530" y="2085" as="sourcePoint" />
            <mxPoint x="444.25" y="2085" as="targetPoint" />
            <Array as="points">
              <mxPoint x="382" y="2170" />
            </Array>
          </mxGeometry>
        </mxCell>
        <mxCell id="AacCfS5JOyqSnJ6VwKo9-124" value="是" style="edgeLabel;resizable=0;html=1;align=center;verticalAlign=middle;" parent="AacCfS5JOyqSnJ6VwKo9-123" connectable="0" vertex="1">
          <mxGeometry relative="1" as="geometry" />
        </mxCell>
        <mxCell id="AacCfS5JOyqSnJ6VwKo9-36" value="" style="endArrow=none;html=1;exitX=1;exitY=0.5;exitDx=0;exitDy=0;" parent="1" source="AacCfS5JOyqSnJ6VwKo9-35" edge="1">
          <mxGeometry width="50" height="50" relative="1" as="geometry">
            <mxPoint x="390" y="830" as="sourcePoint" />
            <mxPoint x="250" y="735" as="targetPoint" />
          </mxGeometry>
        </mxCell>
        <mxCell id="AacCfS5JOyqSnJ6VwKo9-37" value="" style="endArrow=none;html=1;" parent="1" edge="1">
          <mxGeometry width="50" height="50" relative="1" as="geometry">
            <mxPoint x="250" y="660" as="sourcePoint" />
            <mxPoint x="250" y="800" as="targetPoint" />
          </mxGeometry>
        </mxCell>
        <mxCell id="AacCfS5JOyqSnJ6VwKo9-38" value="" style="endArrow=classic;html=1;" parent="1" edge="1">
          <mxGeometry relative="1" as="geometry">
            <mxPoint x="250" y="660" as="sourcePoint" />
            <mxPoint x="380" y="660" as="targetPoint" />
            <Array as="points" />
          </mxGeometry>
        </mxCell>
        <mxCell id="AacCfS5JOyqSnJ6VwKo9-39" value="15分钟未支付" style="edgeLabel;resizable=0;html=1;align=center;verticalAlign=middle;" parent="AacCfS5JOyqSnJ6VwKo9-38" connectable="0" vertex="1">
          <mxGeometry relative="1" as="geometry" />
        </mxCell>
        <mxCell id="AacCfS5JOyqSnJ6VwKo9-40" value="" style="endArrow=classic;html=1;" parent="1" edge="1">
          <mxGeometry relative="1" as="geometry">
            <mxPoint x="250" y="800" as="sourcePoint" />
            <mxPoint x="320" y="800" as="targetPoint" />
            <Array as="points" />
          </mxGeometry>
        </mxCell>
        <mxCell id="AacCfS5JOyqSnJ6VwKo9-41" value="是" style="edgeLabel;resizable=0;html=1;align=center;verticalAlign=middle;" parent="AacCfS5JOyqSnJ6VwKo9-40" connectable="0" vertex="1">
          <mxGeometry relative="1" as="geometry" />
        </mxCell>
        <mxCell id="AacCfS5JOyqSnJ6VwKo9-51" value="" style="endArrow=none;html=1;entryX=0.5;entryY=1;entryDx=0;entryDy=0;" parent="1" target="AacCfS5JOyqSnJ6VwKo9-49" edge="1">
          <mxGeometry width="50" height="50" relative="1" as="geometry">
            <mxPoint x="730" y="990" as="sourcePoint" />
            <mxPoint x="420" y="860" as="targetPoint" />
          </mxGeometry>
        </mxCell>
        <mxCell id="AacCfS5JOyqSnJ6VwKo9-52" value="" style="endArrow=classic;html=1;entryX=1;entryY=0.5;entryDx=0;entryDy=0;" parent="1" target="AacCfS5JOyqSnJ6VwKo9-50" edge="1">
          <mxGeometry relative="1" as="geometry">
            <mxPoint x="730" y="990" as="sourcePoint" />
            <mxPoint x="690" y="810" as="targetPoint" />
            <Array as="points" />
          </mxGeometry>
        </mxCell>
        <mxCell id="AacCfS5JOyqSnJ6VwKo9-53" value="是" style="edgeLabel;resizable=0;html=1;align=center;verticalAlign=middle;" parent="AacCfS5JOyqSnJ6VwKo9-52" connectable="0" vertex="1">
          <mxGeometry relative="1" as="geometry" />
        </mxCell>
        <mxCell id="AacCfS5JOyqSnJ6VwKo9-68" value="" style="endArrow=classic;html=1;" parent="1" target="AacCfS5JOyqSnJ6VwKo9-64" edge="1">
          <mxGeometry relative="1" as="geometry">
            <mxPoint x="600" y="1330" as="sourcePoint" />
            <mxPoint x="560" y="1180" as="targetPoint" />
            <Array as="points" />
          </mxGeometry>
        </mxCell>
        <mxCell id="AacCfS5JOyqSnJ6VwKo9-69" value="否" style="edgeLabel;resizable=0;html=1;align=center;verticalAlign=middle;" parent="AacCfS5JOyqSnJ6VwKo9-68" connectable="0" vertex="1">
          <mxGeometry relative="1" as="geometry" />
        </mxCell>
        <mxCell id="AacCfS5JOyqSnJ6VwKo9-92" value="" style="endArrow=classic;html=1;exitX=0.5;exitY=1;exitDx=0;exitDy=0;" parent="1" source="AacCfS5JOyqSnJ6VwKo9-64" edge="1">
          <mxGeometry relative="1" as="geometry">
            <mxPoint x="440" y="1180" as="sourcePoint" />
            <mxPoint x="360" y="1480" as="targetPoint" />
            <Array as="points" />
          </mxGeometry>
        </mxCell>
        <mxCell id="AacCfS5JOyqSnJ6VwKo9-93" value="轮询5次后" style="edgeLabel;resizable=0;html=1;align=center;verticalAlign=middle;" parent="AacCfS5JOyqSnJ6VwKo9-92" connectable="0" vertex="1">
          <mxGeometry relative="1" as="geometry" />
        </mxCell>
        <mxCell id="AacCfS5JOyqSnJ6VwKo9-94" value="" style="endArrow=none;html=1;" parent="1" edge="1">
          <mxGeometry width="50" height="50" relative="1" as="geometry">
            <mxPoint x="250" y="1480" as="sourcePoint" />
            <mxPoint x="410" y="1480" as="targetPoint" />
          </mxGeometry>
        </mxCell>
        <mxCell id="AacCfS5JOyqSnJ6VwKo9-95" value="" style="endArrow=classic;html=1;entryX=0;entryY=0.5;entryDx=0;entryDy=0;" parent="1" target="AacCfS5JOyqSnJ6VwKo9-116" edge="1">
          <mxGeometry relative="1" as="geometry">
            <mxPoint x="250" y="1480" as="sourcePoint" />
            <mxPoint x="250" y="2130" as="targetPoint" />
            <Array as="points">
              <mxPoint x="250" y="2115" />
            </Array>
          </mxGeometry>
        </mxCell>
        <mxCell id="AacCfS5JOyqSnJ6VwKo9-96" value="是" style="edgeLabel;resizable=0;html=1;align=center;verticalAlign=middle;" parent="AacCfS5JOyqSnJ6VwKo9-95" connectable="0" vertex="1">
          <mxGeometry relative="1" as="geometry" />
        </mxCell>
        <mxCell id="AacCfS5JOyqSnJ6VwKo9-97" value="" style="endArrow=classic;html=1;entryX=0.5;entryY=0;entryDx=0;entryDy=0;" parent="1" target="AacCfS5JOyqSnJ6VwKo9-107" edge="1">
          <mxGeometry relative="1" as="geometry">
            <mxPoint x="410" y="1480" as="sourcePoint" />
            <mxPoint x="440" y="1590" as="targetPoint" />
            <Array as="points" />
          </mxGeometry>
        </mxCell>
        <mxCell id="AacCfS5JOyqSnJ6VwKo9-98" value="否" style="edgeLabel;resizable=0;html=1;align=center;verticalAlign=middle;" parent="AacCfS5JOyqSnJ6VwKo9-97" connectable="0" vertex="1">
          <mxGeometry relative="1" as="geometry" />
        </mxCell>
        <mxCell id="AacCfS5JOyqSnJ6VwKo9-118" value="" style="endArrow=classic;html=1;entryX=0;entryY=0.5;entryDx=0;entryDy=0;" parent="1" target="AacCfS5JOyqSnJ6VwKo9-117" edge="1">
          <mxGeometry relative="1" as="geometry">
            <mxPoint x="350" y="1790" as="sourcePoint" />
            <mxPoint x="290" y="1790" as="targetPoint" />
            <Array as="points">
              <mxPoint x="290" y="1790" />
              <mxPoint x="290" y="2015" />
            </Array>
          </mxGeometry>
        </mxCell>
        <mxCell id="AacCfS5JOyqSnJ6VwKo9-119" value="是" style="edgeLabel;resizable=0;html=1;align=center;verticalAlign=middle;" parent="AacCfS5JOyqSnJ6VwKo9-118" connectable="0" vertex="1">
          <mxGeometry relative="1" as="geometry" />
        </mxCell>
      </root>
    </mxGraphModel>
  </diagram>
</mxfile>
